<svg width="232" height="42" viewBox="0 0 232 42" fill="none" xmlns="http://www.w3.org/2000/svg">
<path fill-rule="evenodd" clip-rule="evenodd" d="M24.1105 3.4001C22.7567 2.03681 20.5624 2.03726 19.2093 3.40112L7.91618 14.7835L7.90656 14.7807L7.87087 14.7845C7.88557 14.7917 7.9 14.7987 7.91413 14.8058C5.93309 15.0149 5.09256 15.6147 5.08304 16.3849C5.0864 16.6714 5.20308 16.9809 5.4174 17.3021L5.40709 17.3125C7.20807 20.0491 16.13 23.6592 22.442 21.2133C17.7114 23.5963 6.57058 24.0686 3.29834 19.4417C2.58771 20.2162 2.29039 21.2341 2.40236 22.2122C3.26679 27.0125 12.9312 28.322 22.5957 21.3671L24.6871 23.4741C22.0847 26.1678 18.2407 41.8142 23.9525 39.4253C24.088 39.3326 24.203 39.2497 24.3594 39.1305L24.614 38.8883C24.5993 38.892 24.5847 38.8955 24.5702 38.8989L39.8677 24.3489C41.2881 22.9979 41.3202 20.7318 39.9387 19.3404L24.1105 3.4001ZM22.4446 8.1418L22.9674 6.03478L23.4902 8.1418L25.0588 8.66857L23.4902 9.19534L22.9674 11.3024L22.4446 9.19534L20.876 8.66857L22.4446 8.1418ZM15.9731 15.0201L16.3217 13.6154L16.6702 15.0201L17.716 15.3713L16.6702 15.7224L16.3217 17.1271L15.9731 15.7224L14.9275 15.3713L15.9731 15.0201ZM28.1129 26.8686L27.7644 28.2732L26.7187 28.6244L27.7644 28.9756L28.1129 30.3802L28.4615 28.9756L29.5072 28.6244L28.4615 28.2732L28.1129 26.8686Z" fill="#FFD05B"/>
<path fill-rule="evenodd" clip-rule="evenodd" d="M41.0458 4.79492C37.7754 4.79492 34.674 6.25845 32.5803 8.78968L25.1318 17.7949L29.4329 11.2949L22.2934 14.3776C21.3867 14.7691 21.1593 15.9593 21.8567 16.662L24.1542 18.9767L22.9812 20.3949L25.5619 22.9949L26.9695 21.8131L29.267 24.1278C29.9645 24.8305 31.1459 24.6013 31.5344 23.6879L34.5941 16.495L28.1425 20.8283L37.0808 13.3239C39.5932 11.2145 41.0458 8.08984 41.0458 4.79492ZM33.9491 11.9451C34.6617 12.663 35.817 12.663 36.5297 11.9451C37.2423 11.2271 37.2423 10.063 36.5297 9.34509C35.817 8.62708 34.6617 8.62708 33.9491 9.34509C33.2364 10.063 33.2364 11.2271 33.9491 11.9451Z" fill="#FF8057"/>
<path opacity="0.6" d="M3.21533 19.3203C4.92403 25.2184 15.3126 24.9109 22.44 21.2139C17.6674 23.6166 6.37726 24.0755 3.21533 19.3203Z" fill="#424242"/>
<path opacity="0.6" d="M23.9526 39.4258C19.1397 41.4387 21.1117 30.6462 23.4085 25.5879C21.7343 30.0839 20.3051 39.9951 24.6141 38.8888L24.3595 39.131C24.2031 39.2502 24.0881 39.3331 23.9526 39.4258Z" fill="#424242"/>
<path d="M55.22 29.1318V18.2518H57.68V20.7718L57.4 20.3518C57.6 19.5652 58 18.9785 58.6 18.5918C59.2 18.2052 59.9067 18.0118 60.72 18.0118C61.6133 18.0118 62.4 18.2452 63.08 18.7118C63.76 19.1785 64.2 19.7918 64.4 20.5518L63.66 20.6118C63.9933 19.7452 64.4933 19.0985 65.16 18.6718C65.8267 18.2318 66.5933 18.0118 67.46 18.0118C68.2333 18.0118 68.92 18.1852 69.52 18.5318C70.1333 18.8785 70.6133 19.3652 70.96 19.9918C71.3067 20.6052 71.48 21.3185 71.48 22.1318V29.1318H68.86V22.7518C68.86 22.2718 68.7733 21.8585 68.6 21.5118C68.4267 21.1652 68.1867 20.8985 67.88 20.7118C67.5733 20.5118 67.2 20.4118 66.76 20.4118C66.3467 20.4118 65.98 20.5118 65.66 20.7118C65.34 20.8985 65.0933 21.1652 64.92 21.5118C64.7467 21.8585 64.66 22.2718 64.66 22.7518V29.1318H62.04V22.7518C62.04 22.2718 61.9533 21.8585 61.78 21.5118C61.6067 21.1652 61.36 20.8985 61.04 20.7118C60.7333 20.5118 60.3667 20.4118 59.94 20.4118C59.5267 20.4118 59.16 20.5118 58.84 20.7118C58.52 20.8985 58.2733 21.1652 58.1 21.5118C57.9267 21.8585 57.84 22.2718 57.84 22.7518V29.1318H55.22ZM75.0213 33.5318C74.7279 33.5318 74.4413 33.5052 74.1613 33.4518C73.8813 33.4118 73.6279 33.3318 73.4013 33.2118V31.0318C73.5746 31.0718 73.7813 31.1118 74.0213 31.1518C74.2746 31.1918 74.5079 31.2118 74.7213 31.2118C75.3213 31.2118 75.7546 31.0718 76.0213 30.7918C76.3013 30.5252 76.5479 30.1652 76.7613 29.7118L77.4813 28.0318L77.4413 30.2318L72.7013 18.2518H75.5213L78.8413 27.0918H77.8413L81.1413 18.2518H83.9813L79.2413 30.2318C78.9613 30.9252 78.6213 31.5185 78.2213 32.0118C77.8213 32.5052 77.3546 32.8785 76.8213 33.1318C76.3013 33.3985 75.7013 33.5318 75.0213 33.5318ZM161.649 29.1318V14.2318H164.249L169.829 21.8118H168.589L174.049 14.2318H176.649V29.1318H173.909V17.3318L174.969 17.5918L169.309 25.1318H168.989L163.469 17.5918L164.369 17.3318V29.1318H161.649ZM184.641 29.3718C183.521 29.3718 182.541 29.1185 181.701 28.6118C180.861 28.1052 180.208 27.4185 179.741 26.5518C179.274 25.6852 179.041 24.7252 179.041 23.6718C179.041 22.5785 179.274 21.6118 179.741 20.7718C180.221 19.9185 180.868 19.2452 181.681 18.7518C182.508 18.2585 183.428 18.0118 184.441 18.0118C185.294 18.0118 186.041 18.1518 186.681 18.4318C187.334 18.7118 187.888 19.0985 188.341 19.5918C188.794 20.0852 189.141 20.6518 189.381 21.2918C189.621 21.9185 189.741 22.5985 189.741 23.3318C189.741 23.5185 189.728 23.7118 189.701 23.9118C189.688 24.1118 189.654 24.2852 189.601 24.4318H181.201V22.4318H188.121L186.881 23.3718C187.001 22.7585 186.968 22.2118 186.781 21.7318C186.608 21.2518 186.314 20.8718 185.901 20.5918C185.501 20.3118 185.014 20.1718 184.441 20.1718C183.894 20.1718 183.408 20.3118 182.981 20.5918C182.554 20.8585 182.228 21.2585 182.001 21.7918C181.788 22.3118 181.708 22.9452 181.761 23.6918C181.708 24.3585 181.794 24.9518 182.021 25.4718C182.261 25.9785 182.608 26.3718 183.061 26.6518C183.528 26.9318 184.061 27.0718 184.661 27.0718C185.261 27.0718 185.768 26.9452 186.181 26.6918C186.608 26.4385 186.941 26.0985 187.181 25.6718L189.301 26.7118C189.088 27.2318 188.754 27.6918 188.301 28.0918C187.848 28.4918 187.308 28.8052 186.681 29.0318C186.068 29.2585 185.388 29.3718 184.641 29.3718ZM191.927 29.1318V18.2518H194.387V20.3918L194.187 20.0118C194.44 19.3585 194.854 18.8652 195.427 18.5318C196.014 18.1852 196.694 18.0118 197.467 18.0118C198.267 18.0118 198.974 18.1852 199.587 18.5318C200.214 18.8785 200.7 19.3652 201.047 19.9918C201.394 20.6052 201.567 21.3185 201.567 22.1318V29.1318H198.947V22.7518C198.947 22.2718 198.854 21.8585 198.667 21.5118C198.48 21.1652 198.22 20.8985 197.887 20.7118C197.567 20.5118 197.187 20.4118 196.747 20.4118C196.32 20.4118 195.94 20.5118 195.607 20.7118C195.274 20.8985 195.014 21.1652 194.827 21.5118C194.64 21.8585 194.547 22.2718 194.547 22.7518V29.1318H191.927ZM208.942 29.2518C207.716 29.2518 206.762 28.9185 206.082 28.2518C205.416 27.5718 205.082 26.6185 205.082 25.3918V20.5918H203.202V18.2518H203.402C203.936 18.2518 204.349 18.1118 204.642 17.8318C204.936 17.5518 205.082 17.1452 205.082 16.6118V15.7718H207.702V18.2518H210.202V20.5918H207.702V25.2518C207.702 25.6118 207.762 25.9185 207.882 26.1718C208.016 26.4252 208.216 26.6185 208.482 26.7518C208.762 26.8852 209.116 26.9518 209.542 26.9518C209.636 26.9518 209.742 26.9452 209.862 26.9318C209.996 26.9185 210.122 26.9052 210.242 26.8918V29.1318C210.056 29.1585 209.842 29.1852 209.602 29.2118C209.362 29.2385 209.142 29.2518 208.942 29.2518ZM217.667 29.3718C216.6 29.3718 215.627 29.1252 214.747 28.6318C213.88 28.1385 213.187 27.4652 212.667 26.6118C212.16 25.7585 211.907 24.7852 211.907 23.6918C211.907 22.5985 212.16 21.6252 212.667 20.7718C213.187 19.9185 213.88 19.2452 214.747 18.7518C215.613 18.2585 216.587 18.0118 217.667 18.0118C218.733 18.0118 219.7 18.2585 220.567 18.7518C221.433 19.2452 222.12 19.9185 222.627 20.7718C223.147 21.6118 223.407 22.5852 223.407 23.6918C223.407 24.7852 223.147 25.7585 222.627 26.6118C222.107 27.4652 221.413 28.1385 220.547 28.6318C219.68 29.1252 218.72 29.3718 217.667 29.3718ZM217.667 26.9718C218.253 26.9718 218.767 26.8318 219.207 26.5518C219.66 26.2718 220.013 25.8852 220.267 25.3918C220.533 24.8852 220.667 24.3185 220.667 23.6918C220.667 23.0518 220.533 22.4918 220.267 22.0118C220.013 21.5185 219.66 21.1318 219.207 20.8518C218.767 20.5585 218.253 20.4118 217.667 20.4118C217.067 20.4118 216.54 20.5585 216.087 20.8518C215.633 21.1318 215.273 21.5185 215.007 22.0118C214.753 22.4918 214.627 23.0518 214.627 23.6918C214.627 24.3185 214.753 24.8852 215.007 25.3918C215.273 25.8852 215.633 26.2718 216.087 26.5518C216.54 26.8318 217.067 26.9718 217.667 26.9718ZM225.593 29.1318V18.2518H228.053V20.6718L227.853 20.3118C228.107 19.4985 228.5 18.9318 229.033 18.6118C229.58 18.2918 230.233 18.1318 230.993 18.1318H231.633V20.4518H230.693C229.947 20.4518 229.347 20.6852 228.893 21.1518C228.44 21.6052 228.213 22.2452 228.213 23.0718V29.1318H225.593Z" fill="white"/>
<path d="M85.84 29.1318V14.2318H88.44L94.02 21.8118H92.78L98.24 14.2318H100.84V29.1318H98.1V17.3318L99.16 17.5918L93.5 25.1318H93.18L87.66 17.5918L88.56 17.3318V29.1318H85.84ZM108.832 29.3718C107.712 29.3718 106.732 29.1185 105.892 28.6118C105.052 28.1052 104.398 27.4185 103.932 26.5518C103.465 25.6852 103.232 24.7252 103.232 23.6718C103.232 22.5785 103.465 21.6118 103.932 20.7718C104.412 19.9185 105.058 19.2452 105.872 18.7518C106.698 18.2585 107.618 18.0118 108.632 18.0118C109.485 18.0118 110.232 18.1518 110.872 18.4318C111.525 18.7118 112.078 19.0985 112.532 19.5918C112.985 20.0852 113.332 20.6518 113.572 21.2918C113.812 21.9185 113.932 22.5985 113.932 23.3318C113.932 23.5185 113.918 23.7118 113.892 23.9118C113.878 24.1118 113.845 24.2852 113.792 24.4318H105.392V22.4318H112.312L111.072 23.3718C111.192 22.7585 111.158 22.2118 110.972 21.7318C110.798 21.2518 110.505 20.8718 110.092 20.5918C109.692 20.3118 109.205 20.1718 108.632 20.1718C108.085 20.1718 107.598 20.3118 107.172 20.5918C106.745 20.8585 106.418 21.2585 106.192 21.7918C105.978 22.3118 105.898 22.9452 105.952 23.6918C105.898 24.3585 105.985 24.9518 106.212 25.4718C106.452 25.9785 106.798 26.3718 107.252 26.6518C107.718 26.9318 108.252 27.0718 108.852 27.0718C109.452 27.0718 109.958 26.9452 110.372 26.6918C110.798 26.4385 111.132 26.0985 111.372 25.6718L113.492 26.7118C113.278 27.2318 112.945 27.6918 112.492 28.0918C112.038 28.4918 111.498 28.8052 110.872 29.0318C110.258 29.2585 109.578 29.3718 108.832 29.3718ZM116.118 29.1318V18.2518H118.578V20.3918L118.378 20.0118C118.631 19.3585 119.044 18.8652 119.618 18.5318C120.204 18.1852 120.884 18.0118 121.658 18.0118C122.458 18.0118 123.164 18.1852 123.778 18.5318C124.404 18.8785 124.891 19.3652 125.238 19.9918C125.584 20.6052 125.758 21.3185 125.758 22.1318V29.1318H123.138V22.7518C123.138 22.2718 123.044 21.8585 122.858 21.5118C122.671 21.1652 122.411 20.8985 122.078 20.7118C121.758 20.5118 121.378 20.4118 120.938 20.4118C120.511 20.4118 120.131 20.5118 119.798 20.7118C119.464 20.8985 119.204 21.1652 119.018 21.5118C118.831 21.8585 118.738 22.2718 118.738 22.7518V29.1318H116.118ZM133.133 29.2518C131.906 29.2518 130.953 28.9185 130.273 28.2518C129.606 27.5718 129.273 26.6185 129.273 25.3918V20.5918H127.393V18.2518H127.593C128.126 18.2518 128.54 18.1118 128.833 17.8318C129.126 17.5518 129.273 17.1452 129.273 16.6118V15.7718H131.893V18.2518H134.393V20.5918H131.893V25.2518C131.893 25.6118 131.953 25.9185 132.073 26.1718C132.206 26.4252 132.406 26.6185 132.673 26.7518C132.953 26.8852 133.306 26.9518 133.733 26.9518C133.826 26.9518 133.933 26.9452 134.053 26.9318C134.186 26.9185 134.313 26.9052 134.433 26.8918V29.1318C134.246 29.1585 134.033 29.1852 133.793 29.2118C133.553 29.2385 133.333 29.2518 133.133 29.2518ZM141.697 29.3718C140.577 29.3718 139.597 29.1185 138.757 28.6118C137.917 28.1052 137.264 27.4185 136.797 26.5518C136.331 25.6852 136.097 24.7252 136.097 23.6718C136.097 22.5785 136.331 21.6118 136.797 20.7718C137.277 19.9185 137.924 19.2452 138.737 18.7518C139.564 18.2585 140.484 18.0118 141.497 18.0118C142.351 18.0118 143.097 18.1518 143.737 18.4318C144.391 18.7118 144.944 19.0985 145.397 19.5918C145.851 20.0852 146.197 20.6518 146.437 21.2918C146.677 21.9185 146.797 22.5985 146.797 23.3318C146.797 23.5185 146.784 23.7118 146.757 23.9118C146.744 24.1118 146.711 24.2852 146.657 24.4318H138.257V22.4318H145.177L143.937 23.3718C144.057 22.7585 144.024 22.2118 143.837 21.7318C143.664 21.2518 143.371 20.8718 142.957 20.5918C142.557 20.3118 142.071 20.1718 141.497 20.1718C140.951 20.1718 140.464 20.3118 140.037 20.5918C139.611 20.8585 139.284 21.2585 139.057 21.7918C138.844 22.3118 138.764 22.9452 138.817 23.6918C138.764 24.3585 138.851 24.9518 139.077 25.4718C139.317 25.9785 139.664 26.3718 140.117 26.6518C140.584 26.9318 141.117 27.0718 141.717 27.0718C142.317 27.0718 142.824 26.9452 143.237 26.6918C143.664 26.4385 143.997 26.0985 144.237 25.6718L146.357 26.7118C146.144 27.2318 145.811 27.6918 145.357 28.0918C144.904 28.4918 144.364 28.8052 143.737 29.0318C143.124 29.2585 142.444 29.3718 141.697 29.3718ZM154.143 29.3718C153.023 29.3718 152.043 29.1185 151.203 28.6118C150.363 28.1052 149.71 27.4185 149.243 26.5518C148.777 25.6852 148.543 24.7252 148.543 23.6718C148.543 22.5785 148.777 21.6118 149.243 20.7718C149.723 19.9185 150.37 19.2452 151.183 18.7518C152.01 18.2585 152.93 18.0118 153.943 18.0118C154.797 18.0118 155.543 18.1518 156.183 18.4318C156.837 18.7118 157.39 19.0985 157.843 19.5918C158.297 20.0852 158.643 20.6518 158.883 21.2918C159.123 21.9185 159.243 22.5985 159.243 23.3318C159.243 23.5185 159.23 23.7118 159.203 23.9118C159.19 24.1118 159.157 24.2852 159.103 24.4318H150.703V22.4318H157.623L156.383 23.3718C156.503 22.7585 156.47 22.2118 156.283 21.7318C156.11 21.2518 155.817 20.8718 155.403 20.5918C155.003 20.3118 154.517 20.1718 153.943 20.1718C153.397 20.1718 152.91 20.3118 152.483 20.5918C152.057 20.8585 151.73 21.2585 151.503 21.7918C151.29 22.3118 151.21 22.9452 151.263 23.6918C151.21 24.3585 151.297 24.9518 151.523 25.4718C151.763 25.9785 152.11 26.3718 152.563 26.6518C153.03 26.9318 153.563 27.0718 154.163 27.0718C154.763 27.0718 155.27 26.9452 155.683 26.6918C156.11 26.4385 156.443 26.0985 156.683 25.6718L158.803 26.7118C158.59 27.2318 158.257 27.6918 157.803 28.0918C157.35 28.4918 156.81 28.8052 156.183 29.0318C155.57 29.2585 154.89 29.3718 154.143 29.3718Z" fill="#FFD05B"/>
</svg>
